<svg width="40" height="37" viewBox="0 0 40 37" fill="none" xmlns="http://www.w3.org/2000/svg">
<g clip-path="url(#clip0_11_79)">
<path d="M3.74298 0C1.67654 0 0 1.68213 0 3.75546V16.2737C0 18.347 1.67654 20.0291 3.74298 20.0291H14.9719H16.2196C16.9097 20.0291 17.4672 19.4697 17.4672 18.7773C17.4672 18.0849 16.9097 17.5255 16.2196 17.5255V15.0218C16.9097 15.0218 17.4672 14.4624 17.4672 13.77V1.25182C17.4672 0.559407 16.9097 0 16.2196 0H14.9719H3.74298ZM3.74298 15.0218H13.7243V17.5255H3.74298C3.05287 17.5255 2.49532 16.9661 2.49532 16.2737C2.49532 15.5812 3.05287 15.0218 3.74298 15.0218ZM4.99064 5.63319C4.99064 5.28894 5.27137 5.00728 5.61447 5.00728H13.1004C13.4435 5.00728 13.7243 5.28894 13.7243 5.63319C13.7243 5.97744 13.4435 6.2591 13.1004 6.2591H5.61447C5.27137 6.2591 4.99064 5.97744 4.99064 5.63319ZM5.61447 7.51092H13.1004C13.4435 7.51092 13.7243 7.79258 13.7243 8.13683C13.7243 8.48108 13.4435 8.76274 13.1004 8.76274H5.61447C5.27137 8.76274 4.99064 8.48108 4.99064 8.13683C4.99064 7.79258 5.27137 7.51092 5.61447 7.51092Z" fill="white"/>
</g>
<g clip-path="url(#clip1_11_79)">
<path d="M26.2762 0C24.2097 0 22.5332 1.68213 22.5332 3.75546V16.2737C22.5332 18.347 24.2097 20.0291 26.2762 20.0291H37.5051H38.7528C39.4429 20.0291 40.0005 19.4697 40.0005 18.7773C40.0005 18.0849 39.4429 17.5255 38.7528 17.5255V15.0218C39.4429 15.0218 40.0005 14.4624 40.0005 13.77V1.25182C40.0005 0.559407 39.4429 0 38.7528 0H37.5051H26.2762ZM26.2762 15.0218H36.2575V17.5255H26.2762C25.5861 17.5255 25.0285 16.9661 25.0285 16.2737C25.0285 15.5812 25.5861 15.0218 26.2762 15.0218ZM27.5238 5.63319C27.5238 5.28894 27.8046 5.00728 28.1477 5.00728H35.6336C35.9767 5.00728 36.2575 5.28894 36.2575 5.63319C36.2575 5.97744 35.9767 6.2591 35.6336 6.2591H28.1477C27.8046 6.2591 27.5238 5.97744 27.5238 5.63319ZM28.1477 7.51092H35.6336C35.9767 7.51092 36.2575 7.79258 36.2575 8.13683C36.2575 8.48108 35.9767 8.76274 35.6336 8.76274H28.1477C27.8046 8.76274 27.5238 8.48108 27.5238 8.13683C27.5238 7.79258 27.8046 7.51092 28.1477 7.51092Z" fill="white"/>
</g>
<path d="M6.25879 11.5107C6.25879 9.3016 8.04965 7.51074 10.2588 7.51074H30.547C31.6516 7.51074 32.547 8.40617 32.547 9.51074V34.3026C32.547 35.4072 31.6516 36.3026 30.547 36.3026H10.2588C8.04965 36.3026 6.25879 34.5117 6.25879 32.3026V11.5107Z" fill="#26333D"/>
<g clip-path="url(#clip2_11_79)">
<path d="M13.4414 10.0142C10.8584 10.0142 8.7627 12.1168 8.7627 14.7085V30.3562C8.7627 32.9479 10.8584 35.0506 13.4414 35.0506H27.4776H29.0372C29.8998 35.0506 30.5968 34.3513 30.5968 33.4858C30.5968 32.6203 29.8998 31.921 29.0372 31.921V28.7915C29.8998 28.7915 30.5968 28.0922 30.5968 27.2267V11.5789C30.5968 10.7134 29.8998 10.0142 29.0372 10.0142H27.4776H13.4414ZM13.4414 28.7915H25.918V31.921H13.4414C12.5788 31.921 11.8818 31.2217 11.8818 30.3562C11.8818 29.4907 12.5788 28.7915 13.4414 28.7915ZM15.001 17.0556C15.001 16.6253 15.3519 16.2733 15.7808 16.2733H25.1382C25.5671 16.2733 25.918 16.6253 25.918 17.0556C25.918 17.486 25.5671 17.838 25.1382 17.838H15.7808C15.3519 17.838 15.001 17.486 15.001 17.0556ZM15.7808 19.4028H25.1382C25.5671 19.4028 25.918 19.7549 25.918 20.1852C25.918 20.6155 25.5671 20.9676 25.1382 20.9676H15.7808C15.3519 20.9676 15.001 20.6155 15.001 20.1852C15.001 19.7549 15.3519 19.4028 15.7808 19.4028Z" fill="white"/>
</g>
<defs>
<clipPath id="clip0_11_79">
<rect width="17.4672" height="20.0291" fill="white"/>
</clipPath>
<clipPath id="clip1_11_79">
<rect width="17.4672" height="20.0291" fill="white" transform="translate(22.5332)"/>
</clipPath>
<clipPath id="clip2_11_79">
<rect width="21.8341" height="25.0364" fill="white" transform="translate(8.7627 10.0142)"/>
</clipPath>
</defs>
</svg>
