<svg width="42" height="25" viewBox="0 0 42 25" fill="none" xmlns="http://www.w3.org/2000/svg">
<g clip-path="url(#clip0_142_2625)">
<path d="M4.67193 0C2.09263 0 0 2.09961 0 4.6875V20.3125C0 22.9004 2.09263 25 4.67193 25H18.6877H20.245C21.1064 25 21.8023 24.3018 21.8023 23.4375C21.8023 22.5732 21.1064 21.875 20.245 21.875V18.75C21.1064 18.75 21.8023 18.0518 21.8023 17.1875V1.5625C21.8023 0.698242 21.1064 0 20.245 0H18.6877H4.67193ZM4.67193 18.75H17.1304V21.875H4.67193C3.81054 21.875 3.11462 21.1768 3.11462 20.3125C3.11462 19.4482 3.81054 18.75 4.67193 18.75ZM6.22924 7.03125C6.22924 6.60156 6.57963 6.25 7.00789 6.25H16.3517C16.78 6.25 17.1304 6.60156 17.1304 7.03125C17.1304 7.46094 16.78 7.8125 16.3517 7.8125H7.00789C6.57963 7.8125 6.22924 7.46094 6.22924 7.03125ZM7.00789 9.375H16.3517C16.78 9.375 17.1304 9.72656 17.1304 10.1562C17.1304 10.5859 16.78 10.9375 16.3517 10.9375H7.00789C6.57963 10.9375 6.22924 10.5859 6.22924 10.1562C6.22924 9.72656 6.57963 9.375 7.00789 9.375Z" fill="white"/>
</g>
<path d="M33.5 13.5V17.5C33.5 18.3313 34.1687 19 35 19C35.8313 19 36.5 18.3313 36.5 17.5V13.5H40.5C41.3313 13.5 42 12.8313 42 12C42 11.1687 41.3313 10.5 40.5 10.5H36.5V6.5C36.5 5.66875 35.8313 5 35 5C34.1687 5 33.5 5.66875 33.5 6.5V10.5H29.5C28.6687 10.5 28 11.1687 28 12C28 12.8313 28.6687 13.5 29.5 13.5H33.5Z" fill="white"/>
<defs>
<clipPath id="clip0_142_2625">
<rect width="21.8023" height="25" fill="white"/>
</clipPath>
</defs>
</svg>
