<svg width="40" height="32" viewBox="0 0 40 32" fill="none" xmlns="http://www.w3.org/2000/svg">
<g clip-path="url(#clip0_142_2623)">
<path d="M9 0C10.3261 0 11.5979 0.526784 12.5355 1.46447C13.4732 2.40215 14 3.67392 14 5C14 6.32608 13.4732 7.59785 12.5355 8.53553C11.5979 9.47322 10.3261 10 9 10C7.67392 10 6.40215 9.47322 5.46447 8.53553C4.52678 7.59785 4 6.32608 4 5C4 3.67392 4.52678 2.40215 5.46447 1.46447C6.40215 0.526784 7.67392 0 9 0ZM32 0C33.3261 0 34.5979 0.526784 35.5355 1.46447C36.4732 2.40215 37 3.67392 37 5C37 6.32608 36.4732 7.59785 35.5355 8.53553C34.5979 9.47322 33.3261 10 32 10C30.6739 10 29.4021 9.47322 28.4645 8.53553C27.5268 7.59785 27 6.32608 27 5C27 3.67392 27.5268 2.40215 28.4645 1.46447C29.4021 0.526784 30.6739 0 32 0ZM0 18.6688C0 14.9875 2.9875 12 6.66875 12H9.3375C10.3312 12 11.275 12.2188 12.125 12.6062C12.0437 13.0562 12.0063 13.525 12.0063 14C12.0063 16.3875 13.0562 18.5312 14.7125 20C14.7 20 14.6875 20 14.6687 20H1.33125C0.6 20 0 19.4 0 18.6688ZM25.3312 20C25.3187 20 25.3062 20 25.2875 20C26.95 18.5312 27.9937 16.3875 27.9937 14C27.9937 13.525 27.95 13.0625 27.875 12.6062C28.725 12.2125 29.6688 12 30.6625 12H33.3312C37.0125 12 40 14.9875 40 18.6688C40 19.4062 39.4 20 38.6688 20H25.3375H25.3312ZM14 14C14 12.4087 14.6321 10.8826 15.7574 9.75736C16.8826 8.63214 18.4087 8 20 8C21.5913 8 23.1174 8.63214 24.2426 9.75736C25.3679 10.8826 26 12.4087 26 14C26 15.5913 25.3679 17.1174 24.2426 18.2426C23.1174 19.3679 21.5913 20 20 20C18.4087 20 16.8826 19.3679 15.7574 18.2426C14.6321 17.1174 14 15.5913 14 14ZM8 30.3312C8 25.7312 11.7312 22 16.3312 22H23.6625C28.2687 22 32 25.7312 32 30.3312C32 31.25 31.2562 32 30.3312 32H9.6625C8.74375 32 7.99375 31.2562 7.99375 30.3312H8Z" fill="white"/>
</g>
<defs>
<clipPath id="clip0_142_2623">
<rect width="40" height="32" fill="white"/>
</clipPath>
</defs>
</svg>
