<svg xmlns="http://www.w3.org/2000/svg" viewBox="0 0 640 640"><!--! Font Awesome Pro 7.2.0 by @fontawesome - https://fontawesome.com License - https://fontawesome.com/license (Commercial License) Copyright 2026 Fonticons, Inc. --><path fill="currentColor" d="M112 320C112 205.1 205.1 112 320 112C434.9 112 528 205.1 528 320C528 434.9 434.9 528 320 528C205.1 528 112 434.9 112 320zM576 320C576 178.6 461.4 64 320 64C178.6 64 64 178.6 64 320C64 461.4 178.6 576 320 576C461.4 576 576 461.4 576 320zM335 199L231 303C221.6 312.4 221.6 327.6 231 336.9L335 441C344.4 450.4 359.6 450.4 368.9 441C378.2 431.6 378.3 416.4 368.9 407.1L281.9 320.1L368.9 233.1C378.3 223.7 378.3 208.5 368.9 199.2C359.5 189.9 344.3 189.8 335 199.2z"/></svg>