<svg width="66" height="57" viewBox="0 0 66 57" fill="none" xmlns="http://www.w3.org/2000/svg">
<path d="M6.13594 33.2899L29.4293 55.0364C30.3961 55.9388 31.6723 56.4415 33 56.4415C34.3277 56.4415 35.6039 55.9388 36.5707 55.0364L59.8641 33.2899C63.7828 29.6419 66 24.5243 66 19.1747V18.427C66 9.41649 59.4902 1.73367 50.6086 0.251252C44.7305 -0.728436 38.7492 1.19227 34.5469 5.39461L33 6.94149L31.4531 5.39461C27.2508 1.19227 21.2695 -0.728436 15.3914 0.251252C6.50977 1.73367 0 9.41649 0 18.427V19.1747C0 24.5243 2.21719 29.6419 6.13594 33.2899Z" fill="#26333D"/>
</svg>
